<svg width="518" height="183" viewBox="0 0 518 183" xmlns="http://www.w3.org/2000/svg"><g fill="none" fill-rule="evenodd"><path d="M179.57 88.152c-18.227 0-27.38-13.331-27.38-27.998 0-14.647 9.47-27.838 27.558-27.838 6.942 0 11.865 1.536 16.036 4.307l-5.185 8.618c-2.93-1.902-6.185-3.137-11.029-3.137-9.752 0-14.996 7.89-14.996 17.724 0 10.134 5.002 18.451 15.174 18.451 5.745 0 9.193-2.043 11.95-4.106l4.784 8.297c-2.712 2.485-9.154 5.682-16.912 5.682m38.86 0c-13.601 0-19.603-10.38-19.603-20.574 0-10.2 5.923-20.84 19.524-20.84 13.621 0 19.82 10.299 19.82 20.498 0 10.034-6.06 20.916-19.74 20.916m-.219-33.163c-5.848 0-7.738 4.98-7.738 12.247 0 7.283 2.291 12.499 8.134 12.499 5.903 0 7.922-4.874 7.922-12.157s-2.415-12.589-8.318-12.589m37.187-7.281v25.333c0 3.885 1.335 5.828 5.066 5.828 3.928 0 6.942-3.79 7.733-4.759V47.708h10.994v27.878c0 5.165.56 9.186 1.054 11.6H269.42c-.321-1.054-.722-3.644-.801-5.245-2.093 2.71-6.1 6.214-12.523 6.214-8.574 0-11.686-5.582-11.686-12.83V47.708h10.989zm50.709 40.444c-12.542 0-20.32-8.312-20.32-20.66 0-13.266 8.733-20.755 20.642-20.755 6.303 0 10.068 1.902 11.904 3.117l-3.488 7.61c-1.737-1.115-4.21-2.29-8.055-2.29-6.11 0-9.356 4.794-9.356 11.977 0 7.223 3.092 12.403 9.593 12.403 4.444 0 7.1-1.641 8.293-2.344l3.335 7.424c-1.841 1.19-5.428 3.518-12.548 3.518m41.92-.969V61.851c0-3.885-1.341-5.823-5.002-5.823-3.993 0-7.006 3.72-7.803 4.768v26.387h-10.989V28.918h10.989v23.506c2.014-2.188 5.744-5.687 12.107-5.687 8.574 0 11.687 5.542 11.687 12.845v27.601h-10.99zm30.926-58.266V50.8c1.757-1.797 5.166-4.065 9.495-4.065 9.668 0 16.51 6.716 16.51 20.413 0 13.578-8.994 21.002-20.78 21.002-8.876 0-14.299-2.244-16.213-3.153v-56.08h10.988zm0 49.687c.718.24 2.356.848 5.225.848 5.685 0 9.134-4.206 9.134-12.303 0-7.298-2.435-11.63-7.976-11.63-3.27 0-5.725 2.104-6.383 2.937v20.148zm53.295 8.579c-.317-.973-.58-2.976-.658-4.19-1.737 2.122-5.383 5.16-10.87 5.16-6.64 0-11.786-4.046-11.786-11.149 0-10.255 10.39-14.04 20.74-14.04h1.337v-2.168c0-3.272-1.316-5.28-6.205-5.28-4.987 0-8.435 2.635-9.87 3.684l-4.745-6.756c2.35-2.148 7.535-5.707 15.897-5.707 10.786 0 15.852 4.166 15.852 14.707v13.864c0 5.44.56 9.326 1.118 11.875h-10.81zm-1.237-17.397h-1.336c-6.041 0-10.212 1.817-10.212 6.29 0 2.81 2.216 4.025 4.626 4.025 3.69 0 5.823-2.143 6.922-3.318v-6.997zm30.69 18.366c-7.04 0-11.528-2.103-13.918-3.724l3.666-7.765c1.54 1.049 5.304 3.232 9.594 3.232 4.008 0 6.259-1.15 6.259-3.398 0-2.585-4.414-3.273-9.93-5.963-5.354-2.615-8.53-5.672-8.53-11.615 0-7.469 5.838-12.182 14.69-12.182 6.664 0 10.756 2.063 12.547 3.137l-3.81 7.59c-1.533-.954-4.586-2.475-8.297-2.475-3.706 0-5.264 1.32-5.264 3.338 0 2.595 3.587 3.222 8.04 5.04 6.145 2.514 10.509 5.425 10.509 12.061 0 8.352-5.883 12.724-15.556 12.724m41.013-8.255c5.264 0 8.159-1.716 10.093-2.69l3.508 7.142c-2.592 1.476-6.56 3.805-14.62 3.805-13.082 0-20.523-8.277-20.523-20.9 0-12.544 8.56-20.52 19.39-20.52 12.265 0 18.188 8.644 16.891 23.396h-24.53c.52 5.887 3.507 9.767 9.791 9.767zm4.186-17.256c-.074-4.372-1.791-7.911-6.501-7.911-4.35 0-6.818 2.81-7.536 7.91h14.037z" fill="#FFF"/><path d="M99.688 69.495c0 3.533-2.06 6.716-6.047 7.411-6.922 1.217-21.452 1.961-33.634 1.961-12.181 0-26.711-.744-33.639-1.96-3.982-.696-6.041-3.879-6.041-7.412v-23.09c-.005-3.538 2.71-6.84 6.041-7.416 2.06-.36 6.815-.7 10.548-.69 1.409.005 2.544 1.113 2.549 2.804l-.005 16.142c7.157-.024 13.37-.428 20.547-.428 7.172 0 13.39.404 20.543.428V41.103c.005-1.69 1.14-2.8 2.544-2.804 3.732-.01 8.493.33 10.547.69 3.337.576 6.047 3.878 6.047 7.416v23.09zM60.008.002C27.586.002 1.3 26.478 1.3 59.132c0 32.655 26.286 59.13 58.706 59.13 32.421 0 58.707-26.475 58.707-59.13 0-32.654-26.286-59.13-58.707-59.13z" fill="#EA2328"/><path d="M13.916 181.44c6.116 0 10.516-3.432 10.516-8.712v-.088c0-4.708-3.168-7.216-10.032-8.712-6.776-1.452-8.36-3.08-8.36-5.984v-.088c0-2.772 2.552-4.972 6.556-4.972 3.168 0 6.028 1.012 8.888 3.344l2.024-2.684c-3.124-2.508-6.336-3.784-10.824-3.784-5.852 0-10.12 3.564-10.12 8.404v.088c0 5.06 3.256 7.348 10.34 8.888 6.468 1.364 8.008 2.992 8.008 5.852v.088c0 3.036-2.728 5.236-6.864 5.236-4.268 0-7.348-1.452-10.56-4.356l-2.156 2.552c3.696 3.3 7.7 4.928 12.584 4.928zM39.74 181h3.476v-27.588H53.6V150.2H29.356v3.212H39.74V181zm14.472 0l14.036-31.02h3.256L85.54 181H81.8l-3.608-8.14H61.428L57.776 181h-3.564zm8.58-11.264h14.036l-6.996-15.708-7.04 15.708zM92.312 181v-30.8h13.244c3.784 0 6.82 1.144 8.756 3.08 1.496 1.496 2.376 3.652 2.376 6.072v.088c0 5.104-3.52 8.096-8.36 8.976l9.46 12.584h-4.268l-8.932-11.968h-8.8V181h-3.476zm3.476-15.092h9.46c4.62 0 7.92-2.376 7.92-6.336v-.088c0-3.784-2.904-6.072-7.876-6.072h-9.504v12.496zM132.656 181h3.476v-27.588h10.384V150.2h-24.244v3.212h10.384V181zm32.156 0l14.036-31.02h3.256L196.14 181h-3.74l-3.608-8.14h-16.764l-3.652 8.14h-3.564zm8.58-11.264h14.036l-6.996-15.708-7.04 15.708zM216.812 181v-30.8h13.244c3.784 0 6.82 1.144 8.756 3.08 1.496 1.496 2.376 3.652 2.376 6.072v.088c0 5.104-3.52 8.096-8.36 8.976l9.46 12.584h-4.268l-8.932-11.968h-8.8V181h-3.476zm3.476-15.092h9.46c4.62 0 7.92-2.376 7.92-6.336v-.088c0-3.784-2.904-6.072-7.876-6.072h-9.504v12.496zM249.324 181h22.484v-3.168H252.8v-10.78h16.808v-3.168H252.8v-10.516h18.788V150.2h-22.264V181zm40.784.22h3.08l13.244-31.02h-3.74l-11 26.532-10.956-26.532h-3.872l13.244 31.02zm35.592.308c-9.372 0-15.664-7.348-15.664-15.84v-.088c0-8.492 6.38-15.928 15.752-15.928s15.664 7.348 15.664 15.84v.088c0 8.492-6.38 15.928-15.752 15.928zm.088-3.212c7.04 0 12.056-5.632 12.056-12.628v-.088c0-6.996-5.104-12.716-12.144-12.716s-12.056 5.632-12.056 12.628v.088c0 6.996 5.104 12.716 12.144 12.716zM349.5 181h20.812v-3.212h-17.336V150.2H349.5V181zm39.376.484c7.7 0 12.848-4.664 12.848-13.64V150.2h-3.476v17.908c0 6.732-3.608 10.164-9.284 10.164-5.896 0-9.416-3.74-9.416-10.384V150.2h-3.476v17.908c0 8.712 5.192 13.376 12.804 13.376zM418.66 181h3.476v-27.588h10.384V150.2h-24.244v3.212h10.384V181zm21.204 0h3.476v-30.8h-3.476V181zm27.496.528c-9.372 0-15.664-7.348-15.664-15.84v-.088c0-8.492 6.38-15.928 15.752-15.928s15.664 7.348 15.664 15.84v.088c0 8.492-6.38 15.928-15.752 15.928zm.088-3.212c7.04 0 12.056-5.632 12.056-12.628v-.088c0-6.996-5.104-12.716-12.144-12.716s-12.056 5.632-12.056 12.628v.088c0 6.996 5.104 12.716 12.144 12.716zM491.16 181h3.388v-25.256L514.436 181h2.772v-30.8h-3.388v24.684L494.416 150.2h-3.256V181z" stroke="#FFF" fill="#FFF"/></g></svg>